<?xml version="1.0" standalone="no"?>
<!DOCTYPE svg PUBLIC "-//W3C//DTD SVG 20010904//EN"
 "http://www.w3.org/TR/2001/REC-SVG-20010904/DTD/svg10.dtd">
<svg version="1.0" xmlns="http://www.w3.org/2000/svg"
 width="1172.000000pt" height="1172.000000pt" viewBox="0 0 1172.000000 1172.000000"
 preserveAspectRatio="xMidYMid meet">

<g transform="translate(0.000000,1172.000000) scale(0.100000,-0.100000)"
fill="#000000" stroke="none">
<path d="M0 5860 l0 -5860 5860 0 5860 0 0 5860 0 5860 -5860 0 -5860 0 0
-5860z m6460 3815 c194 -23 316 -58 475 -137 223 -112 396 -256 547 -458 131
-175 202 -339 256 -590 23 -108 26 -148 26 -300 0 -154 -3 -190 -28 -304 -83
-384 -268 -676 -575 -905 -119 -88 -172 -116 -346 -181 -137 -51 -287 -90
-352 -90 -18 0 -33 -3 -33 -6 0 -6 85 -103 375 -424 116 -128 230 -256 255
-285 49 -57 474 -533 610 -683 47 -52 90 -102 97 -111 11 -15 -26 -16 -485
-18 -565 -3 -515 -10 -596 86 -40 48 -129 149 -407 460 -90 101 -186 209 -214
241 -27 32 -104 118 -170 190 -66 73 -157 175 -203 227 -45 52 -124 141 -175
197 -164 183 -241 268 -305 345 -77 90 -88 101 -94 95 -3 -2 -3 -414 -1 -916
4 -750 2 -912 -9 -919 -18 -12 -1155 -11 -1162 0 -3 5 -6 883 -6 1952 l0 1944
1252 0 1253 0 85 -22 c121 -32 231 -91 330 -177 139 -119 212 -231 276 -421
32 -96 38 -125 42 -228 5 -132 -5 -197 -50 -332 -53 -159 -101 -239 -202 -341
-72 -72 -113 -103 -195 -149 -58 -32 -131 -66 -162 -76 -85 -27 -235 -39 -467
-39 l-205 0 49 -53 c27 -29 111 -123 187 -210 76 -86 144 -157 150 -158 81 -6
310 24 401 53 39 12 136 55 216 94 121 61 160 86 239 156 120 106 258 282 316
403 109 229 150 420 141 660 -7 197 -43 341 -136 541 -141 305 -470 581 -805
675 -188 53 -169 52 -1490 58 l-1230 6 -3 69 c-2 38 -1 75 2 83 8 20 2348 19
2526 -2z m-313 -6211 c226 -46 426 -227 499 -451 27 -81 29 -99 28 -233 0
-129 -3 -154 -27 -225 -32 -96 -70 -158 -145 -238 -95 -99 -212 -170 -337
-203 -108 -28 -307 -26 -405 4 -260 81 -448 297 -489 560 -24 157 -6 277 66
422 38 77 61 110 127 176 137 137 299 201 509 203 54 1 132 -6 174 -15z m1730
-31 c127 -43 211 -114 263 -225 64 -135 66 -258 6 -377 -62 -124 -110 -171
-212 -211 -31 -12 -49 -24 -48 -34 1 -8 31 -53 67 -98 121 -152 267 -352 267
-365 0 -10 -32 -13 -139 -13 l-139 0 -76 113 c-145 212 -208 302 -222 318 -12
14 -38 15 -177 13 l-162 -3 -3 -215 -2 -215 -33 -6 c-17 -3 -70 -5 -117 -3
l-85 3 -3 665 c-1 366 0 670 2 675 2 7 132 8 377 5 344 -6 379 -8 436 -27z
m2154 -51 c17 -42 63 -144 102 -227 88 -190 201 -438 283 -625 36 -80 92 -202
126 -272 34 -70 59 -131 55 -134 -4 -4 -64 -8 -134 -8 l-126 -1 -62 155 -62
155 -342 3 c-319 2 -342 1 -348 -15 -9 -27 -102 -244 -116 -273 -12 -24 -16
-25 -135 -28 -83 -2 -122 1 -122 8 0 6 10 30 23 53 13 23 49 101 79 172 58
134 123 280 248 560 40 88 103 232 142 320 96 220 99 226 119 233 10 4 67 6
128 4 l110 -3 32 -77z m-8184 62 c101 -21 176 -60 241 -126 62 -64 83 -96 105
-163 37 -115 30 -240 -20 -339 -37 -72 -136 -168 -198 -191 -27 -10 -54 -21
-58 -25 -5 -4 25 -52 65 -106 202 -271 268 -362 268 -373 0 -8 -42 -11 -140
-11 l-140 0 -26 43 c-38 60 -243 348 -267 375 -20 21 -27 22 -184 22 l-163 0
0 -220 0 -221 -117 3 -118 3 -3 673 -2 672 340 0 c272 0 356 -3 417 -16z
m1763 -84 l0 -100 -380 0 -380 0 0 -180 0 -180 334 0 c209 0 336 -4 338 -10 2
-5 2 -52 0 -105 l-3 -95 -335 0 -334 0 0 -185 0 -185 388 -2 387 -3 3 -97 3
-98 -158 -1 c-87 -1 -315 -2 -508 -3 l-350 -1 -3 673 -2 672 500 0 500 0 0
-100z m1405 0 l0 -95 -382 -3 -383 -2 0 -211 0 -210 333 1 c182 1 338 1 345 1
10 -1 12 -24 10 -98 l-3 -98 -342 -3 -343 -2 0 -259 0 -258 -111 -7 c-60 -3
-114 -4 -120 -1 -5 4 -9 269 -9 676 l0 669 503 -2 502 -3 0 -95z m3815 -569
l0 -668 -27 -6 c-16 -3 -68 -4 -118 -4 l-90 2 -3 673 -2 672 120 0 120 0 0
-669z"/>
<path d="M4440 8912 c0 -4 25 -32 56 -62 63 -62 602 -655 814 -896 30 -34 109
-123 175 -196 67 -73 145 -162 174 -198 30 -36 61 -70 70 -77 12 -9 92 -12
296 -13 408 0 509 17 652 112 143 96 230 210 297 392 26 74 29 93 30 211 1
149 -12 210 -72 339 -86 182 -238 308 -447 370 -68 20 -92 21 -1057 24 -544 1
-988 -1 -988 -6z"/>
<path d="M4520 7232 l0 -1330 138 -133 c75 -74 169 -166 207 -206 39 -40 72
-73 75 -73 3 0 4 443 2 985 -1 595 1 985 7 985 5 0 33 -28 62 -62 29 -35 94
-106 143 -158 50 -53 179 -195 287 -315 443 -495 557 -624 624 -700 39 -44
131 -147 205 -230 74 -82 200 -224 280 -315 80 -90 170 -191 200 -225 31 -33
63 -71 72 -84 15 -21 25 -24 75 -23 32 0 158 0 281 1 l223 1 -64 73 c-36 39
-144 162 -240 272 -96 110 -254 290 -352 400 -98 110 -210 236 -249 281 -109
124 -469 527 -576 645 -52 58 -142 159 -200 225 -58 65 -136 153 -175 194 -38
42 -122 134 -185 205 -63 71 -149 166 -190 210 -41 45 -124 137 -185 205 -159
179 -429 473 -448 489 -16 13 -17 -76 -17 -1317z"/>
<path d="M5853 3255 c-127 -28 -236 -116 -300 -245 -95 -188 -63 -402 85 -561
95 -103 192 -143 342 -142 147 1 240 42 341 150 56 60 70 85 99 182 20 63 22
89 18 182 -5 93 -10 117 -35 171 -66 139 -164 224 -297 258 -90 23 -164 24
-253 5z"/>
<path d="M7300 3010 l0 -252 218 4 c239 5 277 13 345 69 105 86 107 258 5 360
-55 55 -87 61 -340 66 l-228 5 0 -252z"/>
<path d="M9842 3158 c-15 -47 -172 -419 -203 -480 -10 -20 -19 -40 -19 -43 0
-3 110 -5 245 -5 135 0 245 1 245 3 0 20 -241 567 -250 567 -3 0 -11 -19 -18
-42z"/>
<path d="M1337 3253 c-4 -3 -7 -116 -7 -251 l0 -244 218 4 218 3 69 35 c90 45
124 91 132 177 6 68 -7 118 -45 176 -35 52 -94 84 -177 97 -78 11 -398 14
-408 3z"/>
</g>
</svg>
